<svg xmlns="http://www.w3.org/2000/svg" viewBox="0 0 708.28 401.62"><defs><style>.cls-1{fill:#443636;opacity:0.55;}.cls-2{fill:none;}.cls-3{fill:#fff;}.cls-4{fill:#992929;}.cls-5{fill:#1f1f7c;}</style></defs><title>logo</title><g id="Calque_2" data-name="Calque 2"><g id="Calque_3" data-name="Calque 3"><polygon class="cls-1" points="166.58 46.69 136.51 46.69 136.51 12.47 103.95 12.47 103.95 109.04 136.51 109.04 136.51 73.45 166.58 73.45 166.58 109.04 199.14 109.04 199.14 12.47 166.58 12.47 166.58 46.69"/><polygon class="cls-1" points="246.88 71.79 287.71 71.79 287.71 48.34 246.88 48.34 246.88 37.03 293.37 37.03 293.37 12.47 214.87 12.47 214.87 109.04 295.17 109.04 295.17 84.49 246.88 84.49 246.88 71.79"/><path class="cls-1" d="M393.53,67a34.13,34.13,0,0,0,4.69-18.08,33.43,33.43,0,0,0-20.69-32q-9.93-4.41-23.32-4.41H307.72V109h32.56V84.76h8.83L365.53,109h34.76L380,79.24A33.07,33.07,0,0,0,393.53,67Zm-31.45-9.73q-3.31,3-9.94,3H340.28V37.58h11.86q6.63,0,9.94,3c2.2,2,3.31,4.75,3.31,8.34S364.28,55.26,362.08,57.24Z"/><path class="cls-1" d="M602.89,62.14a32.37,32.37,0,0,0-13.18-8.76,125.39,125.39,0,0,0-18.62-4.76,78.66,78.66,0,0,1-12.28-3.11c-2.48-1-3.73-2.41-3.73-4.34q0-6.08,12.56-6.07t26.9,7.17l9.8-23.59a61.36,61.36,0,0,0-16.9-6.28,89.81,89.81,0,0,0-19.52-2.14q-14.49,0-24.63,4.28T528,26.27a28.63,28.63,0,0,0-5.1,16.55q0,10.49,5.52,16.63a31.82,31.82,0,0,0,13,8.83,141.28,141.28,0,0,0,18.62,5,82.27,82.27,0,0,1,12.49,3.31c2.53,1,3.79,2.53,3.79,4.56,0,1.74-1,3-2.9,3.93s-5.15,1.31-9.65,1.31A60.36,60.36,0,0,1,547.36,84a66.37,66.37,0,0,1-15.45-6.41l-10.49,23.73a62.81,62.81,0,0,0,18.7,7.24,100.88,100.88,0,0,0,23.38,2.69q14.49,0,24.63-4.34t15.24-11.73a28.36,28.36,0,0,0,5.11-16.49Q608.48,68.21,602.89,62.14Z"/><path class="cls-1" d="M489.14,16.75a63.67,63.67,0,0,0-56,0,48.32,48.32,0,0,0-26.49,44,48.35,48.35,0,0,0,26.49,44,63.76,63.76,0,0,0,56,0,48.4,48.4,0,0,0,26.49-44,48.37,48.37,0,0,0-26.49-44ZM462.51,80.48c-.15.39-.28.79-.44,1.23-.15-.43-.27-.82-.41-1.2A16.31,16.31,0,0,0,454.92,72h14.43A16.78,16.78,0,0,0,462.51,80.48Zm44.84-30.22a41.45,41.45,0,0,0-4,1.8v-2h4.19v0Z"/><path class="cls-2" d="M351.91,27.32H340V49.94h11.87q6.61,0,9.93-3t3.31-8.35q0-5.39-3.31-8.35T351.91,27.32Z"/><polygon class="cls-3" points="166.35 36.42 136.27 36.42 136.27 2.21 103.71 2.21 103.71 98.78 136.27 98.78 136.27 63.19 166.35 63.19 166.35 98.78 198.91 98.78 198.91 2.21 166.35 2.21 166.35 36.42"/><polygon class="cls-3" points="246.64 61.53 287.48 61.53 287.48 38.08 246.64 38.08 246.64 26.77 293.14 26.77 293.14 2.21 214.63 2.21 214.63 98.78 294.93 98.78 294.93 74.22 246.64 74.22 246.64 61.53"/><path class="cls-3" d="M393.3,56.7A34.19,34.19,0,0,0,398,38.63a34.72,34.72,0,0,0-5.38-19.32A34.44,34.44,0,0,0,377.29,6.62Q367.36,2.21,354,2.21h-46.5V98.78H340V74.5h8.83l16.42,24.28h34.77L379.78,69A33.15,33.15,0,0,0,393.3,56.7ZM361.84,47q-3.31,3-9.93,3H340V27.32h11.87q6.61,0,9.93,3t3.31,8.35Q365.15,44,361.84,47Z"/><path class="cls-3" d="M602.65,51.87a32.47,32.47,0,0,0-13.17-8.76,126.81,126.81,0,0,0-18.63-4.76,77.88,77.88,0,0,1-12.27-3.1q-3.74-1.45-3.73-4.35,0-6.06,12.56-6.07T594.31,32L604.1,8.42a61.24,61.24,0,0,0-16.9-6.28A89.13,89.13,0,0,0,567.68,0q-14.49,0-24.63,4.28T527.81,16a28.69,28.69,0,0,0-5.11,16.56q0,10.48,5.52,16.62a31.69,31.69,0,0,0,13,8.83,140.21,140.21,0,0,0,18.63,5,82.4,82.4,0,0,1,12.48,3.31q3.8,1.52,3.8,4.55,0,2.63-2.9,3.94t-9.66,1.31a60.47,60.47,0,0,1-16.42-2.42,67.24,67.24,0,0,1-15.45-6.41L521.19,91.06a62.63,62.63,0,0,0,18.69,7.24A101.51,101.51,0,0,0,563.27,101q14.47,0,24.62-4.35t15.25-11.72a28.35,28.35,0,0,0,5.1-16.49Q608.24,57.94,602.65,51.87Z"/><path class="cls-3" d="M508.36,24.49a48.81,48.81,0,0,0-19.45-18,63.78,63.78,0,0,0-56,0,48.4,48.4,0,0,0-26.49,44,48.4,48.4,0,0,0,26.49,44,63.78,63.78,0,0,0,56,0,48.37,48.37,0,0,0,26.48-44A48.89,48.89,0,0,0,508.36,24.49ZM507.12,40a34.3,34.3,0,0,0-6.79,3.49,16.54,16.54,0,0,0-4.94,5,11.12,11.12,0,0,0-1.69,6.71c.05.86.23,1.71.35,2.57,0,0,0,.1,0,.18-.4,0-.78-.06-1.16-.07-2.06-.06-4.12-.17-6.18-.17a46.31,46.31,0,0,0-9.25.87,26,26,0,0,0-6.91,2.36,17,17,0,0,0-8.3,9.34c-.14.39-.27.79-.43,1.23-.15-.43-.28-.82-.42-1.2a16.86,16.86,0,0,0-5-7.24,19.69,19.69,0,0,0-6.12-3.45,32.85,32.85,0,0,0-6.85-1.63,64,64,0,0,0-11.66-.37l-2.1.1c.11-.6.22-1.16.3-1.73a11.58,11.58,0,0,0-2.2-8.7,19.18,19.18,0,0,0-5.75-5,37.8,37.8,0,0,0-5.27-2.58.63.63,0,0,1-.24-.15h.25l29.62.09c.23,0,.32.06.36.3a10.81,10.81,0,0,0,1,3.19,5.72,5.72,0,0,0,4.38,3.19c1.29.22,2.59.41,3.89.55a8.81,8.81,0,0,0,1.7-.05.79.79,0,0,0,.79-.77c.09-1,.19-2,.29-3,.06-.58.12-1.17.19-1.76a2.77,2.77,0,0,1,.14-.46c.29,1.17.57,2.27.86,3.39a10.73,10.73,0,0,1,3.79,0c.29-1.11.57-2.21.87-3.36a1.38,1.38,0,0,1,.1.24c.08.58.17,1.17.22,1.76.07.89.12,1.79.19,2.68,0,.21.08.41.11.62a.62.62,0,0,0,.57.59,10,10,0,0,0,1.72.14,24.72,24.72,0,0,0,4.53-.64,5.83,5.83,0,0,0,4.28-3.79,12,12,0,0,0,.7-2.49c0-.2.12-.26.32-.26l29.67.11h.23l0,0Z"/><path class="cls-4" d="M96.08,234.67l-.3-56.4L68.41,224.18H55L27.82,179.79v54.88H0V128.26H24.78l37.4,61.41,36.48-61.41h24.79l.3,106.41Z"/><path class="cls-4" d="M157.27,223.88Q144.12,211,144.12,187.24v-59h30.1v58.07q0,25.54,20.22,25.54,20.07,0,20.07-25.54V128.26h29.64v59q0,23.72-13.15,36.64T194.14,236.8Q170.41,236.8,157.27,223.88Z"/><path class="cls-4" d="M276.84,233.61q-12.16-3.2-19.77-8.51L267,202.9a63.66,63.66,0,0,0,16.57,7.6,62.88,62.88,0,0,0,18.54,2.89q17.34,0,17.33-8.67c0-3-1.64-5.29-4.94-6.76s-8.59-3-15.88-4.64a150.45,150.45,0,0,1-20.07-5.55,33.68,33.68,0,0,1-13.83-9.5q-5.79-6.53-5.78-17.63a30.5,30.5,0,0,1,5.32-17.56q5.32-7.83,15.89-12.39T306,126.13a91.45,91.45,0,0,1,20.67,2.35,63.63,63.63,0,0,1,17.94,6.92l-9.27,22.35q-15.21-8.2-29.5-8.21-9,0-13.07,2.66c-2.74,1.77-4.1,4.08-4.1,6.92s1.62,5,4.86,6.38,8.46,2.89,15.66,4.41a147,147,0,0,1,20.14,5.55,35,35,0,0,1,13.84,9.42q5.85,6.47,5.85,17.56a30,30,0,0,1-5.32,17.33q-5.33,7.75-16,12.39t-25.85,4.64A98.26,98.26,0,0,1,276.84,233.61Z"/><path class="cls-4" d="M448.32,211.41v23.26H362.88V128.26h83.46v23.26H392.68v17.93H440V192H392.68v19.46Z"/><path class="cls-4" d="M477.28,223.88Q464.13,211,464.13,187.24v-59h30.1v58.07q0,25.54,20.22,25.54,20.07,0,20.07-25.54V128.26h29.64v59q0,23.72-13.15,36.64T514.15,236.8Q490.43,236.8,477.28,223.88Z"/><path class="cls-4" d="M680.61,234.67l-.3-56.4L653,224.18H639.57l-27.22-44.39v54.88H584.53V128.26h24.78l37.4,61.41,36.49-61.41H708l.3,106.41Z"/><polygon class="cls-5" points="524.84 293.26 357.17 350.58 189.51 293.26 189.51 265.97 357.45 323.28 524.84 265.97 524.84 293.26"/><polygon class="cls-3" points="524.84 321.44 357.17 378.76 189.51 321.44 189.51 305.61 357.45 362.93 524.84 305.61 524.84 321.44"/><polygon class="cls-4" points="524.84 344.31 357.17 401.62 189.51 344.31 189.51 334.21 357.45 391.52 524.84 334.21 524.84 344.31"/></g></g></svg>