<svg xmlns="http://www.w3.org/2000/svg" viewBox="0 0 304.26 640.55"><defs><style>.cls-1,.cls-4{fill:#443636;}.cls-1,.cls-3{opacity:0.43;}.cls-2{fill:#efa700;}.cls-5{fill:#992929;}</style></defs><title>vs</title><g id="Calque_2" data-name="Calque 2"><g id="Calque_10" data-name="Calque 10"><polygon class="cls-1" points="205.01 26.08 145.66 271.07 279.36 271.07 130.66 640.55 196.56 350.01 51.66 350.01 205.01 26.08"/><polygon class="cls-2" points="191.97 0 132.62 244.99 266.32 244.99 117.62 614.47 183.51 323.93 38.62 323.93 191.97 0"/><g class="cls-3"><path class="cls-4" d="M177.7,216.62,112.15,368.06H77.53L12.2,216.62H50.06L96.14,324.79l46.73-108.17Z"/><path class="cls-4" d="M205.28,365.79q-16.77-4.86-26.93-12.66l11.9-26.39a80.85,80.85,0,0,0,23.14,11.47,87.1,87.1,0,0,0,26.83,4.32q14.92,0,22.07-4.43t7.14-11.79a11.28,11.28,0,0,0-4.22-9,31.92,31.92,0,0,0-10.82-5.73q-6.6-2.16-17.85-4.76a246.89,246.89,0,0,1-28.34-8.22,46.1,46.1,0,0,1-18.93-13.2q-7.91-9.09-7.89-24.23a42.15,42.15,0,0,1,7.13-23.91q7.14-10.71,21.53-17T245.2,214a116.3,116.3,0,0,1,28.34,3.46,83.79,83.79,0,0,1,24.23,9.95L287,254.05q-21-11.9-42-11.9-14.72,0-21.74,4.76t-7,12.55q0,7.79,8.11,11.57t24.77,7.47a246.29,246.29,0,0,1,28.34,8.22,47,47,0,0,1,18.93,13q7.89,8.87,7.9,24A41.36,41.36,0,0,1,297,347.4q-7.25,10.71-21.74,17T240,370.66A123.73,123.73,0,0,1,205.28,365.79Z"/></g><path class="cls-5" d="M165.5,204.42,100,355.86H65.34L0,204.42H37.86L83.94,312.6l46.73-108.18Z"/><path class="cls-5" d="M193.08,353.59q-16.77-4.86-26.93-12.65l11.9-26.4A80.52,80.52,0,0,0,201.2,326,86.75,86.75,0,0,0,228,330.34q14.92,0,22.07-4.44t7.14-11.79a11.29,11.29,0,0,0-4.22-9,31.92,31.92,0,0,0-10.82-5.73q-6.6-2.16-17.85-4.76A246.89,246.89,0,0,1,196,286.42a46.1,46.1,0,0,1-18.93-13.2q-7.89-9.09-7.89-24.23a42.13,42.13,0,0,1,7.14-23.9q7.14-10.71,21.52-17T233,201.83a116.79,116.79,0,0,1,28.34,3.46,83.67,83.67,0,0,1,24.23,10l-10.82,26.61q-21-11.9-42-11.9-14.72,0-21.74,4.76t-7,12.55q0,7.78,8.11,11.57t24.77,7.47a246.29,246.29,0,0,1,28.34,8.22,46.9,46.9,0,0,1,18.93,13q7.9,8.88,7.9,24a41.36,41.36,0,0,1-7.25,23.69q-7.24,10.71-21.74,17t-35.27,6.27A123.73,123.73,0,0,1,193.08,353.59Z"/></g></g></svg>