<svg xmlns="http://www.w3.org/2000/svg" viewBox="0 0 158.47 52.98"><defs><style>.cls-1{fill:#443636;opacity:0.55;}.cls-2{fill:none;}.cls-3{fill:#fff;}.cls-4{fill:#992929;}</style></defs><title>logo-min</title><g id="Calque_2" data-name="Calque 2"><g id="Calque_10" data-name="Calque 10"><polygon class="cls-1" points="37.27 10.45 30.54 10.45 30.54 2.79 23.26 2.79 23.26 24.4 30.54 24.4 30.54 16.43 37.27 16.43 37.27 24.4 44.56 24.4 44.56 2.79 37.27 2.79 37.27 10.45"/><polygon class="cls-1" points="55.24 16.06 64.37 16.06 64.37 10.82 55.24 10.82 55.24 8.28 65.64 8.28 65.64 2.79 48.08 2.79 48.08 24.4 66.04 24.4 66.04 18.9 55.24 18.9 55.24 16.06"/><path class="cls-1" d="M88.05,15a7.62,7.62,0,0,0,1-4,7.5,7.5,0,0,0-4.63-7.16,12.73,12.73,0,0,0-5.22-1H68.85V24.4h7.28V19h2l3.67,5.44h7.78L85,17.73A7.37,7.37,0,0,0,88.05,15Zm-7-2.17a3.24,3.24,0,0,1-2.22.66H76.13V8.41h2.66A3.24,3.24,0,0,1,81,9.07a2.4,2.4,0,0,1,.74,1.87A2.41,2.41,0,0,1,81,12.81Z"/><path class="cls-1" d="M134.89,13.9a7.29,7.29,0,0,0-2.95-2,28.67,28.67,0,0,0-4.16-1.06,17.17,17.17,0,0,1-2.75-.7c-.56-.21-.84-.54-.84-1,0-.9.94-1.36,2.81-1.36a13.39,13.39,0,0,1,6,1.61l2.19-5.28a13.62,13.62,0,0,0-3.78-1.41,20.5,20.5,0,0,0-4.36-.47,14.28,14.28,0,0,0-5.51,1,7.61,7.61,0,0,0-3.42,2.63A6.4,6.4,0,0,0,117,9.58a5.31,5.31,0,0,0,1.24,3.72,7.14,7.14,0,0,0,2.9,2,31.87,31.87,0,0,0,4.17,1.12,19.72,19.72,0,0,1,2.79.74c.56.23.85.57.85,1a.94.94,0,0,1-.65.88,5.56,5.56,0,0,1-2.16.3,13.13,13.13,0,0,1-3.67-.55A14.36,14.36,0,0,1,119,17.36l-2.35,5.31a14,14,0,0,0,4.19,1.62,22.67,22.67,0,0,0,5.23.6,14,14,0,0,0,5.51-1A7.7,7.7,0,0,0,135,21.3a6.39,6.39,0,0,0,1.14-3.69A5.29,5.29,0,0,0,134.89,13.9Z"/><path class="cls-1" d="M109.44,3.75a14.26,14.26,0,0,0-12.53,0A10.8,10.8,0,0,0,91,13.59a10.8,10.8,0,0,0,5.93,9.85,14.26,14.26,0,0,0,12.53,0,10.85,10.85,0,0,0,5.93-9.85,10.85,10.85,0,0,0-5.93-9.84Zm-6,14.26-.1.27-.09-.27a3.77,3.77,0,0,0-1.11-1.62,3.6,3.6,0,0,0-.4-.28H105A3.75,3.75,0,0,0,103.48,18Zm10-6.77c-.3.12-.59.26-.88.41v-.44h.94Z"/><path class="cls-2" d="M78.74,6.11H76.08v5.06h2.66A3.27,3.27,0,0,0,81,10.51a2.38,2.38,0,0,0,.74-1.87A2.37,2.37,0,0,0,81,6.78,3.22,3.22,0,0,0,78.74,6.11Z"/><polygon class="cls-3" points="37.22 8.15 30.49 8.15 30.49 0.49 23.2 0.49 23.2 22.1 30.49 22.1 30.49 14.14 37.22 14.14 37.22 22.1 44.5 22.1 44.5 0.49 37.22 0.49 37.22 8.15"/><polygon class="cls-3" points="55.18 13.77 64.32 13.77 64.32 8.52 55.18 8.52 55.18 5.99 65.59 5.99 65.59 0.49 48.02 0.49 48.02 22.1 65.99 22.1 65.99 16.61 55.18 16.61 55.18 13.77"/><path class="cls-3" d="M88,12.69a7.66,7.66,0,0,0,1-4,7.8,7.8,0,0,0-1.21-4.32,7.7,7.7,0,0,0-3.42-2.84,12.79,12.79,0,0,0-5.22-1H68.8V22.1h7.28V16.67h2l3.67,5.43h7.78L85,15.43A7.42,7.42,0,0,0,88,12.69Zm-7-2.18a3.27,3.27,0,0,1-2.22.66H76.08V6.11h2.66A3.22,3.22,0,0,1,81,6.78a2.37,2.37,0,0,1,.74,1.86A2.38,2.38,0,0,1,81,10.51Z"/><path class="cls-3" d="M134.84,11.61a7.25,7.25,0,0,0-3-2,27.18,27.18,0,0,0-4.17-1.07A18.76,18.76,0,0,1,125,7.89c-.56-.22-.84-.54-.84-1,0-.9.94-1.35,2.81-1.35a13.4,13.4,0,0,1,6,1.6l2.19-5.28a13.94,13.94,0,0,0-3.78-1.4A20,20,0,0,0,127,0a14.16,14.16,0,0,0-5.51,1,7.5,7.5,0,0,0-3.41,2.62A6.42,6.42,0,0,0,117,7.28,5.35,5.35,0,0,0,118.18,11a7.07,7.07,0,0,0,2.91,2,32,32,0,0,0,4.16,1.13,17.18,17.18,0,0,1,2.8.74c.56.22.85.56.85,1a1,1,0,0,1-.65.88,5.84,5.84,0,0,1-2.16.29,13.55,13.55,0,0,1-3.68-.54A14.71,14.71,0,0,1,119,15.06l-2.35,5.31A13.92,13.92,0,0,0,120.79,22a22.74,22.74,0,0,0,5.23.61,13.89,13.89,0,0,0,5.51-1A7.74,7.74,0,0,0,135,19a6.34,6.34,0,0,0,1.14-3.69A5.26,5.26,0,0,0,134.84,11.61Z"/><path class="cls-3" d="M113.74,5.48a10.92,10.92,0,0,0-4.35-4,14.28,14.28,0,0,0-12.54,0,10.82,10.82,0,0,0-5.92,9.85,10.79,10.79,0,0,0,5.92,9.84,14.19,14.19,0,0,0,12.54,0,10.79,10.79,0,0,0,5.92-9.84A10.94,10.94,0,0,0,113.74,5.48ZM113.46,9a8.08,8.08,0,0,0-1.52.78,3.84,3.84,0,0,0-1.1,1.1,2.46,2.46,0,0,0-.38,1.51,5.58,5.58,0,0,0,.08.57v0h-.26c-.46,0-.92,0-1.38,0a10.29,10.29,0,0,0-2.07.19,5.85,5.85,0,0,0-1.54.53,3.78,3.78,0,0,0-1.86,2.09c0,.09-.06.18-.1.28l-.09-.27a3.74,3.74,0,0,0-1.12-1.62,4.5,4.5,0,0,0-1.36-.78A7.49,7.49,0,0,0,99.22,13a14.24,14.24,0,0,0-2.61-.08l-.47,0c0-.13,0-.26.07-.39a2.55,2.55,0,0,0-.49-1.94,4.28,4.28,0,0,0-1.29-1.11,7.59,7.59,0,0,0-1.18-.58l0,0h0l6.63,0c.05,0,.07,0,.08.06a2.33,2.33,0,0,0,.23.72,1.31,1.31,0,0,0,1,.71q.43.08.87.12a1.61,1.61,0,0,0,.38,0,.18.18,0,0,0,.18-.17l.06-.67c0-.13,0-.26,0-.39l0-.11.19.76a2.43,2.43,0,0,1,.85,0l.19-.75s0,0,0,0,0,.26.05.39,0,.4,0,.6l0,.14a.15.15,0,0,0,.13.14c.12,0,.25,0,.38,0a6,6,0,0,0,1-.15,1.28,1.28,0,0,0,1-.85,2.16,2.16,0,0,0,.16-.55s0-.06.07-.06l6.64,0h.06Z"/><path class="cls-4" d="M21.5,52.51l-.07-12.62L15.31,50.16h-3L6.22,40.23V52.51H0V28.7H5.54l8.37,13.74L22.08,28.7h5.54l.07,23.81Z"/><path class="cls-4" d="M35.19,50.09q-2.94-2.9-2.94-8.2V28.7H39v13q0,5.72,4.52,5.71c3,0,4.49-1.9,4.49-5.71v-13h6.64V41.89q0,5.31-3,8.2T43.44,53Q38.13,53,35.19,50.09Z"/><path class="cls-4" d="M61.94,52.27a13.64,13.64,0,0,1-4.42-1.91l2.21-5a15,15,0,0,0,7.86,2.34c2.58,0,3.87-.64,3.87-1.94a1.61,1.61,0,0,0-1.1-1.51,20.8,20.8,0,0,0-3.56-1A33.86,33.86,0,0,1,62.31,42a7.56,7.56,0,0,1-3.09-2.12,5.76,5.76,0,0,1-1.29-4A6.8,6.8,0,0,1,59.12,32a7.89,7.89,0,0,1,3.55-2.77,14.65,14.65,0,0,1,5.8-1,20.62,20.62,0,0,1,4.63.53,14.25,14.25,0,0,1,4,1.54l-2.08,5a13.85,13.85,0,0,0-6.59-1.83,5.61,5.61,0,0,0-2.93.59,1.8,1.8,0,0,0-.92,1.55A1.53,1.53,0,0,0,65.68,37a19.45,19.45,0,0,0,3.5,1,32.18,32.18,0,0,1,4.51,1.24,7.77,7.77,0,0,1,3.1,2.11,5.63,5.63,0,0,1,1.31,3.92,6.71,6.71,0,0,1-1.19,3.88,8.12,8.12,0,0,1-3.58,2.77,14.26,14.26,0,0,1-5.78,1A22.23,22.23,0,0,1,61.94,52.27Z"/><path class="cls-4" d="M100.31,47.3v5.21H81.19V28.7H99.86v5.2h-12v4H98.44v5H87.86V47.3Z"/><path class="cls-4" d="M106.79,50.09q-3-2.9-3-8.2V28.7h6.74v13q0,5.72,4.52,5.71c3,0,4.49-1.9,4.49-5.71v-13h6.64V41.89c0,3.54-1,6.27-3,8.2S118.57,53,115,53,108.75,52,106.79,50.09Z"/><path class="cls-4" d="M152.28,52.51l-.07-12.62-6.12,10.27h-3L137,40.23V52.51h-6.23V28.7h5.55l8.37,13.74,8.16-13.74h5.54l.07,23.81Z"/></g></g></svg>